<svg xmlns="http://www.w3.org/2000/svg" width="228" height="120" viewBox="0 0 38.001 20"><path d="m10.582 19.97-2.925-.014-.176-.095c-.38-.206-.564-.587-.524-1.079.034-.401.227-.71.542-.865l.158-.078 3.245-.013c3.024-.013 3.253-.018 3.37-.064.425-.168.68-.517.715-.98.04-.512-.18-.93-.598-1.135l-.186-.091-1.769-.015c-1.944-.017-1.862-.01-2.128-.192-.256-.176-.4-.448-.427-.801-.04-.527.197-.955.627-1.128l.16-.064 3.724-.008 3.725-.007v6.657l-2.305-.007c-1.267-.003-3.62-.013-5.228-.02zm-5.116-4.467c-.387-.104-.671-.47-.709-.914-.052-.623.262-1.084.812-1.19.116-.023.55-.03 1.434-.024l1.267.008.17.08c.213.098.403.289.501.503.108.236.126.602.043.87a.966.966 0 0 1-.655.665c-.187.055-2.658.057-2.863.002Zm-1.89-4.455a1.042 1.042 0 0 1-.663-.572c-.067-.142-.074-.186-.074-.504 0-.319.007-.362.074-.506.1-.215.274-.395.477-.496l.168-.084h3.375l.147.068c.178.083.391.291.474.463.087.18.126.423.108.67-.036.476-.287.81-.71.943-.17.053-.251.056-1.714.054-1.124-.001-1.57-.011-1.663-.036Zm5.633-.005a1.462 1.462 0 0 1-.234-.085c-.132-.069-.336-.287-.413-.443-.063-.127-.07-.172-.07-.515 0-.347.007-.388.073-.53.087-.185.266-.368.456-.468l.14-.075 2.451-.017c1.348-.01 3.363-.019 4.477-.02l2.026-.004v2.2l-4.38-.002c-3.689-.001-4.402-.008-4.526-.041ZM2.053 6.546c-.4-.2-.593-.587-.557-1.112.027-.398.256-.744.598-.901l.133-.062h6.07l.16.075c.202.095.38.273.484.484.077.157.081.184.08.528 0 .337-.005.372-.075.516a1.149 1.149 0 0 1-.485.487l-.146.069H2.222Zm8.414.044c-.239-.074-.451-.265-.59-.528-.07-.134-.075-.164-.075-.518 0-.353.005-.386.075-.53.102-.208.278-.38.496-.484l.18-.086 2.66-.014c2.645-.014 2.66-.015 2.785-.074.45-.213.66-.578.636-1.107-.01-.21-.026-.284-.096-.435a1.1 1.1 0 0 0-.469-.496l-.14-.075-1.267-.013-1.268-.014-.158-.075c-.43-.201-.63-.575-.601-1.122.022-.434.211-.734.574-.913l.184-.09 2.361-.008L18.115 0v6.63l-3.767-.002c-2.985-.002-3.79-.01-3.88-.038ZM.821 2.173a1.082 1.082 0 0 1-.755-.633c-.088-.23-.088-.703 0-.933C.144.405.358.167.548.073L.692.002h1.593l.144.071c.19.095.404.332.482.534.09.234.088.703-.003.94-.088.23-.339.481-.57.572-.155.06-.212.066-.78.072a6.789 6.789 0 0 1-.737-.018Zm3.78-.002a1.072 1.072 0 0 1-.684-.554c-.07-.144-.075-.177-.075-.53 0-.349.005-.387.074-.534A1.08 1.08 0 0 1 4.393.07l.145-.068h6.517l.141.066c.409.19.622.59.589 1.104-.032.5-.278.837-.712.974-.173.054-.248.056-3.272.053-1.703-.002-3.143-.014-3.2-.028Z" style="fill:#31dd83;stroke-width:.02785" transform="matrix(1.00294 0 0 1.00011 0 0)"/><path d="M18.115 16.668V13.34h6.573v6.656h-6.573zm4.4 0V15.54h-2.228v2.256h2.228zm4.4 2.228v-1.1h2.173v2.2h-2.172zm4.4-1.114v-2.214h2.173v2.228h4.4v2.2h-6.572zm-4.4-5.57V8.884h2.173v2.228h2.228V8.884h2.172v4.428h-4.4v2.228h-2.172zm8.801 0V8.884h2.173v6.656h-2.173ZM18.115 9.984v-1.1h2.172v2.2h-2.172zm4.4 0v-1.1h2.173v2.2h-2.173zm-4.4-6.67V0h6.573v6.628h-6.573zm4.4.014V2.2h-2.228v2.256h2.228zm4.4-.014V0h2.173v6.628h-2.172zm4.4 0V0h6.574v6.628h-6.573zm4.401.014V2.2h-2.228v2.256h2.228z" style="fill:#fff;stroke-width:.02785" transform="matrix(1.00294 0 0 1.00011 0 0)"/></svg>