<svg xmlns="http://www.w3.org/2000/svg" width="345" height="120" viewBox="0 0 57.5 20"><path d="m222.622 91.502-105-.514-6.327-3.43C97.66 80.165 91.03 66.513 92.49 48.831c1.19-14.402 8.132-25.495 19.43-31.042l5.702-2.8 116.5-.5c108.588-.467 116.806-.62 121-2.278 15.255-6.026 24.398-18.565 25.683-35.223 1.415-18.347-6.492-33.34-21.474-40.72l-6.66-3.28-63.525-.539c-69.81-.593-66.884-.328-76.434-6.899-9.164-6.305-14.359-16.054-15.324-28.76-1.438-18.926 7.094-34.26 22.533-40.498l5.701-2.304 133.75-.267 133.75-.268V92.488l-82.75-.236c-45.512-.13-130-.468-187.75-.75zM38.923-68.91c-13.895-3.74-24.093-16.9-25.44-32.829-1.888-22.348 9.402-38.899 29.162-42.746 4.166-.81 19.75-1.067 51.475-.844l45.5.318 6.11 2.824c7.658 3.54 14.481 10.4 17.99 18.09 3.866 8.477 4.512 21.628 1.532 31.227-3.716 11.972-12.107 20.493-23.518 23.881-6.726 1.998-95.43 2.065-102.81.08zm-67.87-159.968c-10.265-2.767-19.01-10.306-23.796-20.513-2.406-5.132-2.635-6.704-2.635-18.12 0-11.445.225-12.978 2.66-18.175 3.607-7.693 9.82-14.159 17.103-17.798l6.057-3.027 60.59.01 60.59.01 5.253 2.446c6.404 2.981 14.063 10.443 17.04 16.6 3.125 6.465 4.526 15.198 3.861 24.063-1.283 17.096-10.302 29.07-25.51 33.867-6.05 1.91-8.989 2.002-61.5 1.937-40.368-.05-56.368-.397-59.714-1.3zm202.3-.183c-2.899-.78-6.68-2.148-8.402-3.038-4.763-2.463-12.1-10.32-14.86-15.912-2.255-4.568-2.468-6.164-2.469-18.5 0-12.45.202-13.927 2.595-19 3.135-6.647 9.536-13.235 16.36-16.836l5.045-2.664 88-.616c48.4-.34 120.738-.677 160.75-.75l72.75-.134v79l-157.25-.066c-132.483-.055-158.08-.289-162.52-1.484zM-83.617-390.538c-14.332-7.162-21.297-21.06-20.004-39.92.98-14.292 9.213-26.69 21.49-32.36l4.751-2.194h218l5.697 2.67c7.255 3.401 13.666 9.813 17.384 17.385 2.773 5.647 2.92 6.597 2.91 18.945-.007 12.104-.195 13.382-2.722 18.538-3.443 7.027-10.697 14.31-17.419 17.49l-5.226 2.472H-77.558Zm302.133 1.608c-8.58-2.685-16.21-9.514-21.2-18.974-2.542-4.816-2.696-5.878-2.696-18.608 0-12.648.17-13.847 2.705-19.006 3.672-7.477 9.996-13.656 17.795-17.385l6.5-3.109 95.5-.5c94.973-.497 95.525-.512 100-2.638 16.133-7.665 23.66-20.774 22.826-39.756-.33-7.557-.92-10.21-3.457-15.606-3.56-7.57-9.697-14.075-16.823-17.836l-5.046-2.664-45.5-.5-45.5-.5-5.675-2.66c-15.443-7.24-22.63-20.648-21.602-40.302.815-15.598 7.592-26.367 20.633-32.788l6.6-3.25 84.772-.277 84.773-.277v238.054l-135.25-.067c-107.185-.053-136.1-.333-139.353-1.35zm-346.35-158.626c-11.735-2.425-22.915-11.788-27.115-22.709-3.173-8.252-3.173-25.242 0-33.493 2.794-7.264 10.474-15.78 17.3-19.18l5.162-2.574h57.214l5.163 2.573c6.825 3.4 14.505 11.917 17.3 19.18 3.22 8.376 3.175 25.232-.093 33.747-3.158 8.232-12.18 17.275-20.477 20.527-5.563 2.18-7.6 2.37-28 2.6-12.1.136-24.004-.166-26.455-.672zm135.7-.04c-10.119-2.385-19.787-10.228-24.54-19.908-2.535-5.16-2.706-6.359-2.706-19.007 0-12.54.19-13.905 2.67-19.196 3.336-7.116 10.31-14.188 17.117-17.357l5.213-2.427h234l5.066 2.36c14.676 6.833 22.326 21.182 21.14 39.653-1.154 17.978-9.978 30.048-25.56 34.963-6.21 1.958-8.905 2.002-117.5 1.904-61.13-.055-112.835-.499-114.9-.985z" style="fill:#31dd83" transform="matrix(.02785 0 0 .02785 4.382 17.424)"/><path d="M493.121-27.066v-119.5h236v239h-236zm158 0v-40.5h-80v81h80zm158 80v-39.5h78v79h-78zm158-40v-79.5h78v80h158v79h-236Zm-158-200v-119.5h78v80h80v-80h78v159h-158v80h-78zm316 0v-119.5h78v239h-78zm-632-80v-39.5h78v79h-78zm158 0v-39.5h78v79h-78zm-158-239.5v-119h236v238h-236zm158 .5v-40.5h-80v81h80zm158-.5v-119h78v238h-78zm158 0v-119h236v238h-236Zm158 .5v-40.5h-80v81h80z" style="fill:#000" transform="matrix(.02785 0 0 .02785 4.382 17.424)"/></svg>